PathFileType        4      (X/Y/Z)      /Users/FranklinZhao/OpenSimProject/Simulation/Models/Rajapogal_2015/scale_data/transformed_SN001_static.trc         
DataRate	CameraRate	NumFrames	NumMarkers	Units	OrigDataRate	OrigDataStartFrame	OrigNumFrames
200.0	200.0	4	72	mm	200.0	4	14
Frame#	Time	LPSIS			RPSIS			LICR			RICR			LASIS			RASIS			RUA1			RUA2			RUA3			RUA4			RHLE			RHME			RTEMP			RHEAD			LHEAD			LTEMP			RACR			LACR			LUA1			LUA2			LUA3			LUA4			LHLE			LHME			STER			XPRO			C7			T4			T8			T10			LFA1			LFA2			LFA3			LRSP			LUSP			RFA1			RFA2			RFA3			RRSP			RUSP			LTH1			LTH2			LTH3			LTH4			LFLE			LFME			LSK1			LSK2			LSK3			LSK4			LTAM			LFAL			LFCC			LFMT1			LFMT2			LFMT5			RTH1			RTH2			RTH3			RTH4			RFLE			RFME			RSK1			RSK2			RSK3			RSK4			RFAL			RTAM			RFCC			RFMT1			RFMT2			RFMT5			
		X1	Y1	Z1	X2	Y2	Z2	X3	Y3	Z3	X4	Y4	Z4	X5	Y5	Z5	X6	Y6	Z6	X7	Y7	Z7	X8	Y8	Z8	X9	Y9	Z9	X10	Y10	Z10	X11	Y11	Z11	X12	Y12	Z12	X13	Y13	Z13	X14	Y14	Z14	X15	Y15	Z15	X16	Y16	Z16	X17	Y17	Z17	X18	Y18	Z18	X19	Y19	Z19	X20	Y20	Z20	X21	Y21	Z21	X22	Y22	Z22	X23	Y23	Z23	X24	Y24	Z24	X25	Y25	Z25	X26	Y26	Z26	X27	Y27	Z27	X28	Y28	Z28	X29	Y29	Z29	X30	Y30	Z30	X31	Y31	Z31	X32	Y32	Z32	X33	Y33	Z33	X34	Y34	Z34	X35	Y35	Z35	X36	Y36	Z36	X37	Y37	Z37	X38	Y38	Z38	X39	Y39	Z39	X40	Y40	Z40	X41	Y41	Z41	X42	Y42	Z42	X43	Y43	Z43	X44	Y44	Z44	X45	Y45	Z45	X46	Y46	Z46	X47	Y47	Z47	X48	Y48	Z48	X49	Y49	Z49	X50	Y50	Z50	X51	Y51	Z51	X52	Y52	Z52	X53	Y53	Z53	X54	Y54	Z54	X55	Y55	Z55	X56	Y56	Z56	X57	Y57	Z57	X58	Y58	Z58	X59	Y59	Z59	X60	Y60	Z60	X61	Y61	Z61	X62	Y62	Z62	X63	Y63	Z63	X64	Y64	Z64	X65	Y65	Z65	X66	Y66	Z66	X67	Y67	Z67	X68	Y68	Z68	X69	Y69	Z69	X70	Y70	Z70	X71	Y71	Z71	X72	Y72	Z72	
4	0.015	-1604.845703125	1006.665588378906	276.71582031249966	-1604.412841796875	1009.6468505859381	354.12109374999966	-1585.561157226562	1066.212158203125	183.8944396972652	-1573.0537109375	1091.448486328125	445.3921508789058	-1413.448852539062	989.293701171875	185.44366455078085	-1406.9619140625	994.5010375976564	444.3523254394528	-1559.941162109375	1369.919067382812	562.2356567382808	-1498.66064453125	1400.782104492188	592.7822265624995	-1480.44580078125	1346.4196777343752	639.9727172851558	-1538.725463867188	1306.363403320312	616.5427246093745	-1500.301513671875	1244.2713623046882	665.2766113281245	-1449.218139648438	1218.609619140625	614.0119018554683	-1410.4189453125	1708.138549804688	390.74887084960886	-1367.939331054688	1714.902587890625	353.73495483398386	-1369.49267578125	1712.401000976562	271.8425292968745	-1419.807250976562	1701.134399414062	233.7799224853511	-1532.898315429688	1523.040649414062	480.7925720214839	-1548.274047851562	1526.131713867188	128.5129852294917	-1517.480102539062	1408.46630859375	30.130279541015177	-1566.538330078125	1354.891723632812	52.852645874023	-1539.805053710938	1290.73291015625	0.8388719558711563	-1491.243774414062	1342.923950195312	-21.280361175537536	-1494.391967773438	1249.0673828125	-41.910938262939865	-1457.901245117188	1217.372802734375	11.410467147826747	-1448.326904296875	1455.085571289062	302.07830810546835	-1391.248779296875	1250.21240234375	294.9125671386715	-1577.071899414062	1559.896728515625	312.87600708007767	-1635.880981445312	1450.281860351562	307.53024291992136	-1635.919067382812	1314.891967773438	311.14883422851517	-1630.472045898438	1269.827270507812	306.34210205078074	-1447.527954101562	1140.1884765625	-224.04890441894568	-1473.140014648438	1107.886352539062	-201.01141357421918	-1437.689086914062	1107.244873046875	-229.07075500488318	-1390.364624023438	1100.60107421875	-248.21838378906287	-1413.528564453125	1047.26611328125	-210.24401855468787	-1506.43798828125	1120.4249267578123	808.8569946289058	-1487.0673828125	1151.9996337890623	837.282836914062	-1480.70751953125	1118.9157714843752	846.0104980468745	-1449.501586914062	1099.5484619140623	889.8987426757808	-1456.834716796875	1056.1931152343752	844.240112304687	-1489.707885742188	716.0269165039062	123.15103912353489	-1538.829467773438	719.7296752929688	134.91627502441375	-1553.068725585938	612.7522583007812	143.4014892578122	-1490.647705078125	613.2766723632812	126.3535232543942	-1534.512451171875	520.2884521484375	142.82405090332003	-1519.306518554688	492.19653320312506	259.1111755371091	-1568.794921875	350.8016052246094	100.27332305908173	-1627.01123046875	352.7328796386719	122.59291839599582	-1631.091064453125	264.9171142578125	127.76021575927706	-1571.9853515625	267.3585815429688	102.73775482177706	-1551.091674804688	85.4652252197266	193.72244262695287	-1608.085815429688	76.58264923095706	133.3752441406248	-1627.208251953125	36.63314819335942	188.402145385742	-1421.718872070312	30.309766769409205	131.65286254882793	-1433.412719726562	31.1710777282715	93.66043853759749	-1491.87451171875	23.57115936279298	58.705257415771285	-1513.944702148438	748.5811767578126	499.57424926757784	-1457.757446289062	727.6958007812501	497.7382812499997	-1460.460327148438	641.0688476562501	489.5701599121091	-1524.708129882812	648.3631591796876	489.4644165039059	-1525.051879882812	536.3715820312501	480.5822753906247	-1520.02001953125	500.77008056640625	362.03921508789034	-1590.920654296875	366.4049072265626	512.1350097656247	-1534.47119140625	383.5420532226563	518.5895996093747	-1533.390380859375	274.3700561523439	513.6891479492185	-1597.442260742188	283.6755981445313	511.4962463378904	-1594.147338867188	74.15734863281259	487.9378356933592	-1550.294067382812	87.5960769653321	414.9711608886717	-1623.533935546875	42.79813385009774	439.88296508789045	-1422.900268554688	30.102224349975675	454.9143981933592	-1421.874633789062	30.9756622314454	499.9053649902342	-1468.203002929688	21.25930786132822	547.2279663085935	
5	0.02	-1604.8271484375	1006.611938476562	276.71298217773403	-1604.418334960938	1009.6126098632811	354.10202026367153	-1585.54833984375	1066.220581054688	183.8935699462887	-1573.027709960938	1091.41943359375	445.4055175781246	-1413.442260742188	989.3057861328125	185.36331176757776	-1406.972290039062	994.5000000000001	444.40130615234347	-1559.959106445312	1369.85986328125	562.2285156249995	-1498.748413085938	1400.74755859375	592.738647460937	-1480.527099609375	1346.3742675781252	639.955444335937	-1538.781127929688	1306.2958984375	616.548950195312	-1500.357299804688	1244.1959228515623	665.2555541992183	-1449.325805664062	1218.5693359375	614.0106811523433	-1410.464111328125	1708.164672851562	390.79843139648386	-1367.967651367188	1714.891235351562	353.79379272460886	-1369.515869140625	1712.41455078125	271.8739318847651	-1419.787719726562	1701.16357421875	233.75691223144483	-1532.925170898438	1523.026123046875	480.75488281249955	-1548.260131835938	1526.144287109375	128.49652099609332	-1517.480712890625	1408.48681640625	30.121637344359907	-1566.56982421875	1354.899291992188	52.856834411620646	-1539.840454101562	1290.731811523438	0.8032795786853347	-1491.254028320312	1342.931762695312	-21.265439987183047	-1494.42529296875	1249.13623046875	-41.990821838379325	-1457.94775390625	1217.337646484375	11.373514175414638	-1448.377685546875	1455.068481445312	302.0706481933589	-1391.250366210938	1250.175048828125	294.9466552734371	-1577.064331054688	1559.884887695312	312.87576293945267	-1635.905883789062	1450.23193359375	307.53952026367136	-1635.923706054688	1314.821411132812	311.11672973632767	-1630.447998046875	1269.769775390625	306.3073425292964	-1447.467407226562	1140.240844726562	-224.10241699218787	-1473.09423828125	1107.91943359375	-201.11784362793006	-1437.617919921875	1107.323608398438	-229.13954162597696	-1390.280395507812	1100.710327148438	-248.23152160644568	-1413.457763671875	1047.338012695312	-210.30572509765656	-1506.442260742188	1120.4140625000002	808.8734741210933	-1487.0458984375	1152.0334472656252	837.2377929687495	-1480.705200195312	1118.9006347656252	846.0170288085933	-1449.495849609375	1099.5313720703123	889.9370727539058	-1456.822509765625	1056.2105712890623	844.314086914062	-1489.72412109375	715.997802734375	123.1808853149411	-1538.839111328125	719.7391967773438	134.87927246093716	-1553.068237304688	612.7191162109375	143.3990325927731	-1490.671630859375	613.2550048828125	126.387641906738	-1534.527709960938	520.3087158203125	142.88252258300753	-1519.355712890625	492.20318603515625	259.1147460937497	-1568.826049804688	350.7587585449219	100.30378723144503	-1627.028686523438	352.7196044921875	122.63339233398413	-1631.097412109375	264.9076232910156	127.76841735839815	-1571.969970703125	267.3414611816406	102.74412536621065	-1551.090698242188	85.42840576171879	193.74481201171858	-1608.086303710938	76.555046081543	133.3744659423826	-1627.20166015625	36.58238220214847	188.3942108154295	-1421.716186523438	30.297529220581076	131.67935180664043	-1433.415161132812	31.152761459350607	93.66249847412092	-1491.86767578125	23.59068298339845	58.706256866454886	-1513.962768554688	748.5518798828126	499.59976196289034	-1457.786376953125	727.6837158203126	497.7521667480466	-1460.437866210938	641.0331420898439	489.6426696777341	-1524.70654296875	648.3660888671876	489.4793090820309	-1525.085327148438	536.3228759765626	480.55984497070284	-1519.995971679688	500.7676086425782	362.0335693359372	-1590.935424804688	366.3855895996095	512.1448974609372	-1534.428588867188	383.5531005859376	518.6030883789059	-1533.393310546875	274.3394165039063	513.7037963867185	-1597.4248046875	283.6302490234376	511.52572631835915	-1594.159057617188	74.13285827636727	487.96072387695295	-1550.305908203125	87.52762603759773	415.01907348632795	-1623.563720703125	42.743122100830156	439.8921813964842	-1422.899291992188	30.106290817260824	454.90472412109364	-1421.853149414062	31.01184654235849	499.8927917480467	-1468.211181640625	21.26283264160166	547.2060546874998	
6	0.025	-1604.83349609375	1006.55078125	276.7296447753903	-1604.410522460938	1009.5705566406251	354.0779113769528	-1585.5732421875	1066.190673828125	183.9031066894527	-1573.0537109375	1091.376953125	445.4327392578121	-1413.46826171875	989.2604370117188	185.44938659667935	-1406.978271484375	994.4866943359376	444.3860168457028	-1560.042724609375	1369.843627929688	562.2020874023433	-1498.792358398438	1400.709716796875	592.7546386718745	-1480.57275390625	1346.3405761718752	639.9548339843745	-1538.835815429688	1306.28466796875	616.5300292968745	-1500.400756835938	1244.1884765625002	665.2602539062495	-1449.334838867188	1218.547607421875	614.0078124999995	-1410.473754882812	1708.128051757812	390.8452453613276	-1367.979858398438	1714.870971679688	353.7746887207026	-1369.518188476562	1712.394653320312	271.9430541992183	-1419.794189453125	1701.14501953125	233.74447631835892	-1532.973266601562	1522.985107421875	480.7665710449214	-1548.293334960938	1526.142456054688	128.48384094238233	-1517.514770507812	1408.505493164062	30.134862899779826	-1566.611572265625	1354.896850585938	52.86831665039018	-1539.885620117188	1290.751220703125	0.8119675517077957	-1491.302001953125	1342.917602539062	-21.288116455078548	-1494.475952148438	1249.0751953125	-41.988441467285575	-1457.998046875	1217.320556640625	11.348375320434167	-1448.390380859375	1455.062133789062	302.0896911621089	-1391.295043945312	1250.20068359375	294.9566955566402	-1577.101440429688	1559.857543945312	312.92199707031205	-1635.986083984375	1450.19873046875	307.5582580566401	-1635.961547851562	1314.731811523438	311.11480712890574	-1630.454833984375	1269.729736328125	306.30459594726517	-1447.40478515625	1140.307250976562	-224.14006042480506	-1473.02294921875	1107.972412109375	-201.24392700195347	-1437.498901367188	1107.38134765625	-229.24478149414097	-1390.185791015625	1100.845581054688	-248.28271484375037	-1413.367797851562	1047.410522460938	-210.40640258789097	-1506.460083007812	1120.3688964843752	808.903442382812	-1487.056762695312	1152.0417480468752	837.2609863281245	-1480.710327148438	1118.8856201171882	846.0516967773433	-1449.472534179688	1099.5258789062502	889.9439086914058	-1456.822998046875	1056.1959228515623	844.3425903320308	-1489.909423828125	715.7440185546875	123.68846130371058	-1538.91552734375	719.5741577148438	135.02073669433557	-1553.074951171875	612.7271118164062	143.4247741699216	-1490.651611328125	613.2368774414062	126.3740768432614	-1534.504638671875	520.23095703125	142.8490447998044	-1519.4052734375	492.13262939453125	259.1314392089841	-1568.802856445312	350.7910766601562	100.29170227050753	-1627.00244140625	352.7029418945312	122.60291290283173	-1631.101440429688	264.8833618164062	127.76316833496065	-1571.9921875	267.3660583496094	102.74346160888646	-1551.100463867188	85.33660125732426	193.74844360351537	-1607.915283203125	76.58650207519534	133.3951110839842	-1627.217041015625	36.573505401611364	188.3846282958982	-1421.7138671875	30.258150100708036	131.69117736816392	-1433.388793945312	31.15164184570314	93.65823364257795	-1491.879272460938	23.55822372436524	58.679222106933395	-1513.955688476562	748.5647583007814	499.6132507324216	-1457.815185546875	727.6670532226564	497.7544555664059	-1460.464965820312	640.9733276367189	489.6007995605466	-1524.681274414062	648.3061523437501	489.52407836914034	-1525.11865234375	536.3441772460939	480.5462341308591	-1519.991088867188	500.80126953125006	362.04238891601534	-1590.979125976562	366.3085937500001	512.1154785156247	-1534.430786132812	383.5398559570313	518.6138305664059	-1533.399658203125	274.34426879882824	513.7354736328123	-1597.439331054688	283.6066284179689	511.5144348144529	-1594.148559570312	74.11676025390634	487.95755004882795	-1550.409301757812	87.39379882812507	414.78027343749983	-1623.566284179688	42.745197296142656	439.88537597656233	-1422.828857421875	30.182863235473715	454.93817138671864	-1421.809692382812	31.099216461181733	499.9844665527342	-1468.1982421875	21.23626899719248	547.2382812499998	
7	0.03	-1604.860229492188	1006.561401367188	276.70697021484347	-1604.427001953125	1009.5426635742191	354.0567932128903	-1585.560668945312	1066.189697265625	183.8830413818355	-1573.055786132812	1091.358642578125	445.4088134765621	-1413.44580078125	989.225830078125	185.31973266601526	-1407.007934570312	994.5567626953126	444.3963928222653	-1560.089111328125	1369.799072265625	562.1862182617183	-1498.811279296875	1400.717529296875	592.765258789062	-1480.621704101562	1346.3103027343752	639.9544067382808	-1538.863891601562	1306.294311523438	616.5249633789058	-1500.442016601562	1244.1795654296882	665.2885742187495	-1449.368530273438	1218.5244140625	614.003051757812	-1410.528564453125	1708.08349609375	390.846069335937	-1368.046997070312	1714.892333984375	353.801147460937	-1369.515502929688	1712.37646484375	271.9188537597651	-1419.81591796875	1701.12158203125	233.8099517822261	-1532.977416992188	1522.94921875	480.81045532226517	-1548.314453125	1526.108154296875	128.50109863281202	-1517.525024414062	1408.50390625	30.142580032348185	-1566.592651367188	1354.8896484375	52.8564300537105	-1539.956176757812	1290.770385742188	0.8365545868869338	-1491.322998046875	1342.94287109375	-21.295351028442806	-1494.508056640625	1249.098876953125	-41.94103622436564	-1458.03662109375	1217.28515625	11.318950653075767	-1448.417236328125	1455.061279296875	302.08731079101517	-1391.261962890625	1250.197387695312	294.9396057128902	-1577.123657226562	1559.841064453125	312.91943359374955	-1635.962524414062	1450.274780273438	307.4983215332026	-1635.97216796875	1314.729125976562	311.11993408203074	-1630.495971679688	1269.702270507812	306.31140136718705	-1447.304931640625	1140.364379882812	-224.19813537597696	-1472.9580078125	1108.074096679688	-201.31916809082068	-1437.4462890625	1107.51318359375	-229.27604675293006	-1390.101318359375	1100.950073242188	-248.31198120117227	-1413.303344726562	1047.557373046875	-210.48092651367227	-1506.452758789062	1120.3604736328123	808.9450073242183	-1487.044311523438	1151.9940185546882	837.2909545898433	-1480.622802734375	1118.8807373046882	846.1108398437495	-1449.47021484375	1099.5661621093752	889.969848632812	-1456.823120117188	1056.1899414062502	844.3707885742183	-1489.9033203125	715.7109375	123.68431854248018	-1538.906127929688	719.5881958007812	134.98097229003875	-1553.074829101562	612.7140502929688	143.3891448974606	-1490.638061523438	613.2435913085938	126.36801910400361	-1534.519409179688	520.2107543945312	142.8394165039059	-1519.449462890625	492.12557983398443	259.13003540039034	-1568.794921875	350.771240234375	100.27056121826143	-1627.019409179688	352.6992797851562	122.61650848388643	-1631.118896484375	264.8836975097656	127.74775695800756	-1571.967651367188	267.3338317871094	102.71622467040996	-1551.094604492188	85.2922744750977	193.75338745117168	-1607.9091796875	76.58222961425784	133.414855957031	-1627.203491210938	36.5596084594727	188.3986663818357	-1421.7021484375	30.269145965576193	131.67010498046864	-1433.405395507812	31.133098602294936	93.68510437011702	-1491.8662109375	23.5540008544922	58.70455551147442	-1513.984741210938	748.5281982421876	499.5684509277341	-1457.797119140625	727.6337890625001	497.73745727539034	-1460.489868164062	640.9959106445314	489.6253662109372	-1524.693237304688	648.2973022460939	489.5170898437497	-1525.107788085938	536.3024291992189	480.5637817382809	-1520.033569335938	500.77038574218756	362.0416870117185	-1590.9658203125	366.3086853027345	512.1605224609372	-1534.474365234375	383.50064086914074	518.6040039062497	-1533.401000976562	274.376922607422	513.7568359374998	-1597.440795898438	283.6217041015626	511.5419311523436	-1594.134521484375	74.09436798095712	487.94531249999983	-1550.389892578125	87.39204406738288	414.7599792480467	-1623.584838867188	42.81406784057625	439.96264648437483	-1422.9208984375	30.083358764648526	454.9320983886717	-1421.863403320312	30.94278907775888	499.9318542480467	-1468.195556640625	21.22583389282237	547.2198486328123	
